HIERARCHY
ROOT root
{
	OFFSET 0.000000 0.000000 0.000000
	CHANNELS 6 Xposition Yposition Zposition Zrotation Yrotation Xrotation
	JOINT lhip
	{
		OFFSET 0.058581 -0.082280 -0.017664
		CHANNELS 3 Zrotation Yrotation Xrotation
		JOINT lknee
		{
			OFFSET 0.043451 -0.386469 0.008037
			CHANNELS 3 Zrotation Yrotation Xrotation
			JOINT lankle
			{
				OFFSET -0.014790 -0.426874 -0.037428
				CHANNELS 3 Zrotation Yrotation Xrotation
				JOINT ltoe
				{
					OFFSET 0.041054 -0.060286 0.122042
					CHANNELS 3 Zrotation Yrotation Xrotation
					End Site
					{
						OFFSET 0.000000 0.000000 0.000000
					}
				}
			}
		}
	}
	JOINT rhip
	{
		OFFSET -0.060310 -0.090513 -0.013543
		CHANNELS 3 Zrotation Yrotation Xrotation
		JOINT rknee
		{
			OFFSET -0.043257 -0.383688 -0.004843
			CHANNELS 3 Zrotation Yrotation Xrotation
			JOINT rankle
			{
				OFFSET 0.019056 -0.420046 -0.034562
				CHANNELS 3 Zrotation Yrotation Xrotation
				JOINT rtoe
				{
					OFFSET -0.034840 -0.062106 0.130323
					CHANNELS 3 Zrotation Yrotation Xrotation
					End Site
					{
						OFFSET 0.000000 0.000000 0.000000
					}
				}
			}
		}
	}
	JOINT lowerback
	{
		OFFSET 0.004439 0.124404 -0.038385
		CHANNELS 3 Zrotation Yrotation Xrotation
		JOINT upperback
		{
			OFFSET 0.004488 0.137956 0.026820
			CHANNELS 3 Zrotation Yrotation Xrotation
			JOINT chest
			{
				OFFSET -0.002265 0.056032 0.002855
				CHANNELS 3 Zrotation Yrotation Xrotation
				JOINT lowerneck
				{
					OFFSET -0.013390 0.211636 -0.033468
					CHANNELS 3 Zrotation Yrotation Xrotation
					JOINT upperneck
					{
						OFFSET 0.010113 0.088937 0.050410
						CHANNELS 3 Zrotation Yrotation Xrotation
						End Site
						{
							OFFSET 0.000000 0.000000 0.000000
						}
					}
				}
				JOINT lclavicle
				{
					OFFSET 0.071702 0.114000 -0.018898
					CHANNELS 3 Zrotation Yrotation Xrotation
					JOINT lshoulder
					{
						OFFSET 0.122921 0.045205 -0.019046
						CHANNELS 3 Zrotation Yrotation Xrotation
						JOINT lelbow
						{
							OFFSET 0.255332 -0.015649 -0.022946
							CHANNELS 3 Zrotation Yrotation Xrotation
							JOINT lwrist
							{
								OFFSET 0.265709 0.012698 -0.007375
								CHANNELS 3 Zrotation Yrotation Xrotation
								End Site
								{
									OFFSET 0.000000 0.000000 0.000000
								}
							}
						}
					}
				}
				JOINT rclavicle
				{
					OFFSET -0.082954 0.112472 -0.023707
					CHANNELS 3 Zrotation Yrotation Xrotation
					JOINT rshoulder
					{
						OFFSET -0.113228 0.046853 -0.008472
						CHANNELS 3 Zrotation Yrotation Xrotation
						JOINT relbow
						{
							OFFSET -0.260127 -0.014369 -0.031269
							CHANNELS 3 Zrotation Yrotation Xrotation
							JOINT rwrist
							{
								OFFSET -0.269108 0.006794 -0.006027
								CHANNELS 3 Zrotation Yrotation Xrotation
								End Site
								{
									OFFSET 0.000000 0.000000 0.000000
								}
							}
						}
					}
				}
			}
		}
	}
}
MOTION
Frames: 5
Frame Time: 0.033333
1.244987 0.725026 0.881104 -92.118384 0.553153 91.171783 2.646139 -7.389365 -27.825089 -8.777528 0.417090 59.277396 8.764506 17.879276 -35.924413 0.000000 -0.000000 0.000000 3.830178 7.098071 -25.444690 -2.323940 -1.027775 56.169436 -2.874711 -22.059808 -36.304806 0.000000 -0.000000 0.000000 -1.860558 2.908968 24.500975 -0.108654 -0.584218 -6.912895 0.829292 -0.313063 0.806203 0.655878 1.758516 -24.602644 2.518738 -5.325872 -3.220244 -28.949543 -15.583007 4.410256 -53.552565 -8.030936 8.410634 2.726986 -10.778129 7.811841 8.129580 -4.651468 7.221549 27.126151 18.934029 7.487323 55.819697 7.393731 15.151994 -7.648850 20.008904 11.264405 -13.593143 2.441688 9.054362 
1.227421 0.725200 0.895234 -91.355139 0.535689 91.697473 1.789303 -6.085956 -24.039684 -8.560875 -1.609741 54.066357 9.909356 17.985917 -35.099873 0.000000 -0.000000 0.000000 3.617572 4.777392 -22.204510 -1.098891 -0.396373 51.393159 -2.946794 -21.765641 -35.143311 0.000000 -0.000000 0.000000 -2.035589 2.907557 20.593000 0.164511 -1.147634 -5.287153 1.126993 -0.620434 0.796128 0.227127 0.926337 -24.823349 2.277534 -4.852865 -1.702358 -27.514535 -16.382671 4.848490 -56.651037 -8.479249 8.470600 3.478062 -9.961055 10.296250 8.636036 -3.135314 8.907215 26.109030 19.686218 8.021943 57.367028 7.067163 14.633011 -7.975899 19.442748 12.441171 -11.955281 1.005088 11.307296 
1.203438 0.725786 0.927847 -90.412621 0.470376 91.138346 1.314070 -4.682015 -16.532660 -8.784935 -4.641762 44.115435 9.379622 16.487013 -30.423167 0.000000 -0.000000 0.000000 2.940492 1.622870 -14.559277 0.327348 -0.211564 40.951958 -2.371004 -19.542388 -30.291293 0.000000 -0.000000 0.000000 -2.205499 2.899852 16.688983 0.311258 -1.914345 -4.491504 1.403449 -0.768836 0.914842 -0.086837 0.311795 -21.652585 2.234623 -4.505941 -0.053447 -25.953106 -15.569556 4.594623 -59.841936 -8.655317 9.696376 2.939383 -9.345598 14.782692 9.412998 -1.642853 10.950866 24.583770 18.602960 7.423794 59.890838 5.718880 15.111153 -6.979687 19.564764 15.188590 -9.606700 -0.244836 12.290186 
1.175760 0.726930 0.973313 -89.192431 0.551181 90.660132 1.399085 -3.296467 -8.322249 -7.156793 -6.618835 32.152163 6.964087 11.475408 -18.466565 0.000000 -0.000000 0.000000 2.747773 -1.362652 -6.174008 -0.233260 -1.210230 28.818762 -1.652123 -14.963252 -16.372220 0.000000 -0.000000 0.000000 -1.996653 2.811408 10.881412 0.326302 -3.097633 -1.647253 1.387091 -1.008567 -0.262596 -1.098183 -1.007527 -14.637127 2.659490 -3.010834 -0.079219 -25.007131 -13.949377 5.128190 -61.430815 -8.516572 9.460334 3.468847 -10.235253 16.667018 5.106862 -0.342933 13.521297 22.756852 16.771527 6.977193 62.933556 3.974408 15.494132 -6.271181 20.365279 17.706583 -6.481265 -0.939831 14.262126 
1.151711 0.727167 1.025138 -88.517921 0.625159 90.886268 1.221498 -3.213779 -4.624320 -3.892528 -6.386406 24.175731 1.751459 5.700798 2.110685 0.000000 -0.000000 0.000000 3.096619 -2.835238 -3.399021 -2.539982 -3.047980 22.368179 0.588216 -10.530570 6.517250 0.000000 -0.000000 0.000000 -1.784535 2.501475 6.299397 0.421676 -4.009150 0.306034 1.257788 -1.112176 -1.931673 -3.354913 -3.500784 -6.919660 3.850128 -0.074129 -2.264395 -25.178980 -11.851564 6.148139 -61.039098 -9.011205 8.458513 3.682325 -11.111464 12.791793 -2.699473 1.559455 11.922687 21.695932 13.996427 6.656116 64.680664 3.341298 15.267543 -7.261828 21.497698 14.127625 -2.559624 -3.046616 14.428125 
